<svg viewBox="0 0 440.869 88.219" height="88.219" width="440.869" xmlns="http://www.w3.org/2000/svg">
  <g transform="translate(17559.287 15458.588)" data-name="Groupe 2087" id="Groupe_2087">
    <g data-name="Groupe 2084" id="Groupe_2084">
      <path fill="#58ad48" transform="translate(-17559.287 -15482.114)" d="M0,23.527v88.218H150.389l43.042-44.109L150.389,23.527Z" data-name="Tracé 3414" id="Tracé_3414"></path>
      <path fill="#fff" transform="translate(-17553.166 -15466.361)" d="M33.066,59.677h-13.7l6.848-19.689Zm2.961,8.64,3.455,10.16h11.1L32.412,28.1H20.451L1.776,78.477H12.8l3.535-10.16Z" data-name="Tracé 3415" id="Tracé_3415"></path>
      <path fill="#fff" transform="translate(-17514.758 -15465.668)" d="M27.8,34.551H22.756V28.3h-3.4v6.252H12.92v3.406h6.434V44.28h3.4V37.957H27.8Z" data-name="Tracé 3416" id="Tracé_3416"></path>
      <path fill="#fff" transform="translate(-17499.896 -15465.668)" d="M32.11,34.551H27.073V28.3h-3.4v6.252H17.233v3.406h6.438V44.28h3.4V37.957H32.11Z" data-name="Tracé 3417" id="Tracé_3417"></path>
      <path fill="#58ad48" transform="translate(-17559.285 -15482.114)" d="M193.431,67.636l-43.042,44.109H0V23.527H150.389Z" data-name="Tracé 3430" id="Tracé_3430"></path>
      <path fill="#fff" transform="translate(-17553.166 -15466.361)" d="M33.066,59.677h-13.7l6.848-19.689Zm2.961,8.64,3.455,10.16h11.1L32.412,28.1H20.451L1.776,78.477H12.8l3.535-10.16Z" data-name="Tracé 3431" id="Tracé_3431"></path>
      <path fill="#fff" transform="translate(-17514.758 -15465.668)" d="M27.8,34.551H22.756V28.3h-3.4v6.252H12.92v3.406h6.434V44.28h3.4V37.957H27.8Z" data-name="Tracé 3432" id="Tracé_3432"></path>
      <path fill="#fff" transform="translate(-17499.896 -15465.668)" d="M32.11,34.551H27.073V28.3h-3.4v6.252H17.233v3.406h6.438V44.28h3.4V37.957H32.11Z" data-name="Tracé 3433" id="Tracé_3433"></path>
    </g>
    <g transform="translate(223.996 -104.613)" data-name="Groupe 2083" id="Groupe_2083">
      <path fill="#bbce37" transform="translate(-17559.283 -15401.029)" d="M0,47.054v88.218H173.827l43.042-44.1L173.827,47.054Z" data-name="Tracé 3418" id="Tracé_3418"></path>
      <path fill="#fff" transform="translate(-17553.166 -15385.275)" d="M33.066,83.2h-13.7l6.848-19.689Zm2.961,8.639L39.482,102h11.1L32.412,51.625H20.451L1.776,102H12.8l3.535-10.16Z" data-name="Tracé 3419" id="Tracé_3419"></path>
      <path fill="#fff" transform="translate(-17514.758 -15384.582)" d="M27.8,58.078H22.756V51.826h-3.4v6.252H12.92v3.406h6.434v6.323h3.4V61.484H27.8Z" data-name="Tracé 3420" id="Tracé_3420"></path>
      <path fill="#bbce37" transform="translate(-17559.283 -15401.028)" d="M216.869,91.164l-43.042,44.109H0V47.055H173.827Z" data-name="Tracé 3439" id="Tracé_3439"></path>
      <path fill="#fff" transform="translate(-17553.166 -15385.275)" d="M33.066,83.2h-13.7l6.848-19.689Zm2.961,8.639L39.482,102h11.1L32.412,51.625H20.451L1.776,102H12.8l3.535-10.16Z" data-name="Tracé 3440" id="Tracé_3440"></path>
      <path fill="#fff" transform="translate(-17514.758 -15384.582)" d="M27.8,58.078H22.756V51.826h-3.4v6.252H12.92v3.406h6.434v6.323h3.4V61.484H27.8Z" data-name="Tracé 3441" id="Tracé_3441"></path>
    </g>
  </g>
</svg>
